<svg width="1872" height="983" viewBox="0 0 1872 983" fill="none" xmlns="http://www.w3.org/2000/svg">
<rect width="1872" height="983" fill="black"/>
<g clip-path="url(#clip0_5601_199709)">
<path d="M1075.31 407.071H1222.12V434.168H1163.88V576.725H1134.76V434.168H1075.31V407.071Z" fill="white"/>
<path d="M833.856 407.071V434.168H716.177V477.76H810.814V504.857H716.177V549.627H833.856V576.725H687.057V434.168H687.045V407.071H833.856Z" fill="white"/>
<path d="M907.165 407.142H869.057L1005.55 576.796H1043.77L975.516 492.027L1043.66 407.271L1005.55 407.33L956.436 468.331L907.165 407.142Z" fill="white"/>
<path d="M946.27 528.326L927.186 504.598L868.947 576.925H907.165L946.27 528.326Z" fill="white"/>
<path fill-rule="evenodd" clip-rule="evenodd" d="M688.08 576.725L551.399 407H515V576.654H544.12V443.264L651.498 576.725H688.08Z" fill="white"/>
<path d="M1228.67 575.689C1226.53 575.689 1224.72 574.95 1223.2 573.472C1221.68 571.995 1220.93 570.206 1220.95 568.087C1220.93 566.026 1221.68 564.257 1223.2 562.779C1224.72 561.301 1226.53 560.562 1228.67 560.562C1230.72 560.562 1232.51 561.301 1234.03 562.779C1235.57 564.257 1236.34 566.026 1236.36 568.087C1236.34 569.487 1235.98 570.77 1235.27 571.917C1234.54 573.083 1233.62 573.997 1232.45 574.658C1231.31 575.339 1230.05 575.689 1228.67 575.689Z" fill="white"/>
<path d="M1278.36 504.219H1291.27V553.933C1291.25 558.502 1290.26 562.41 1288.33 565.696C1286.38 568.981 1283.67 571.489 1280.2 573.259C1276.75 575.008 1272.7 575.903 1268.1 575.903C1263.9 575.903 1260.13 575.145 1256.78 573.667C1253.43 572.189 1250.76 569.973 1248.81 567.057C1246.83 564.14 1245.87 560.504 1245.87 556.149H1258.79C1258.81 558.055 1259.25 559.707 1260.07 561.088C1260.9 562.468 1262.05 563.518 1263.51 564.257C1264.99 564.996 1266.68 565.365 1268.6 565.365C1270.67 565.365 1272.45 564.937 1273.88 564.062C1275.32 563.207 1276.43 561.924 1277.2 560.213C1277.95 558.521 1278.35 556.422 1278.36 553.933V504.219Z" fill="white"/>
<path d="M1344.36 523.661C1344.05 520.647 1342.67 518.295 1340.26 516.623C1337.83 514.931 1334.7 514.095 1330.85 514.095C1328.15 514.095 1325.82 514.504 1323.88 515.301C1321.95 516.117 1320.45 517.206 1319.42 518.586C1318.4 519.967 1317.89 521.542 1317.84 523.311C1317.84 524.789 1318.2 526.072 1318.89 527.141C1319.58 528.23 1320.51 529.144 1321.71 529.883C1322.9 530.641 1324.22 531.263 1325.66 531.768C1327.12 532.274 1328.58 532.702 1330.04 533.052L1336.77 534.704C1339.47 535.326 1342.1 536.163 1344.6 537.232C1347.11 538.282 1349.38 539.623 1351.37 541.237C1353.36 542.851 1354.94 544.795 1356.1 547.07C1357.27 549.344 1357.86 552.008 1357.86 555.08C1357.86 559.221 1356.79 562.857 1354.64 566.007C1352.49 569.137 1349.39 571.587 1345.33 573.356C1341.28 575.106 1336.39 576 1330.63 576C1325.07 576 1320.21 575.145 1316.13 573.434C1312.03 571.742 1308.83 569.254 1306.52 565.987C1304.21 562.721 1302.97 558.735 1302.79 554.05H1315.58C1315.75 556.499 1316.54 558.541 1317.89 560.193C1319.25 561.827 1321.02 563.032 1323.19 563.849C1325.38 564.646 1327.83 565.054 1330.53 565.054C1333.35 565.054 1335.84 564.626 1337.99 563.79C1340.12 562.954 1341.8 561.788 1343 560.271C1344.23 558.774 1344.84 557.005 1344.86 554.983C1344.84 553.136 1344.28 551.6 1343.22 550.394C1342.13 549.189 1340.63 548.178 1338.72 547.361C1336.79 546.545 1334.54 545.806 1331.97 545.164L1323.8 543.103C1317.9 541.606 1313.23 539.332 1309.81 536.279C1306.38 533.227 1304.68 529.183 1304.68 524.108C1304.68 519.948 1305.83 516.293 1308.14 513.162C1310.43 510.032 1313.56 507.602 1317.53 505.871C1321.52 504.122 1326.01 503.266 1331.02 503.266C1336.12 503.266 1340.57 504.122 1344.42 505.871C1348.27 507.602 1351.29 510.013 1353.48 513.084C1355.67 516.156 1356.81 519.675 1356.87 523.661H1344.36Z" fill="white"/>
</g>
<defs>
<clipPath id="clip0_5601_199709">
<rect width="842.861" height="169" fill="white" transform="translate(515 407)"/>
</clipPath>
</defs>
</svg>
